<svg
   fill="#cde7ec"
   viewBox="0 0 512 512">
  <path
     d="m 459.5,440.64874 c 9.5,7.9 22.8,9.7 34.1,4.4 11.3,-5.3 18.4,-16.6 18.4,-29 V 96.048743 c 0,-12.4 -7.2,-23.7 -18.4,-29 -11.2,-5.3 -24.5,-3.6 -34.1,4.4 L 288,214.34874 v 41.7 41.7 z m -203.5,-88.6 v -96 -128 -31.999997 c 0,-12.4 -7.2,-23.7 -18.4,-29 -11.2,-5.3 -24.5,-3.6 -34.1,4.4 L 11.5,231.44874 c -7.3,6.1 -11.5,15.1 -11.5,24.6 0,9.5 4.2,18.5 11.5,24.6 l 192,160 c 9.5,7.9 22.8,9.7 34.1,4.4 11.3,-5.3 18.4,-16.6 18.4,-29 z"
    />
</svg>
