<svg
   viewBox="0 0 512 512"
   fill="#ffdcc3">
  <path
     d="m 23.26953,0 a 23.273047,23.272887 0 0 0 -16.4547708,6.8182299 23.273047,23.272887 0 0 0 0,32.9093151 L 30.178716,63.091343 c -4.45094,9.272306 -6.886804,19.48343 -6.909186,29.954753 a 23.275375,23.275215 0 0 0 0,0.04546 V 418.91197 c 0,38.28405 31.53483,69.81867 69.819142,69.81867 H 418.91134 c 10.61716,0 20.8479,-2.45515 30.04587,-6.86369 l 23.3185,23.31834 a 23.273047,23.272887 0 0 0 32.90954,0 23.273047,23.272887 0 0 0 0,-32.90931 L 467.91202,435.00299 307.36434,274.45644 235.45428,202.54685 169.58973,136.68276 76.81572,43.909394 39.724301,6.8182299 A 23.273047,23.272887 0 0 0 23.26953,0 Z m 162.91133,23.272887 a 23.273047,23.272887 0 0 0 -23.27304,23.272888 23.273047,23.272887 0 0 0 23.27304,23.272887 h 232.73048 c 13.12898,0 23.27305,10.143996 23.27305,23.272888 v 176.54669 l -30.09133,-30.09113 a 23.273047,23.272887 0 0 0 -32.90954,0 23.273047,23.272887 0 0 0 0,32.90931 l 69.81915,69.81866 a 23.273047,23.272887 0 0 0 6.7728,4.5455 23.273047,23.272887 0 0 0 1.27276,0.59089 23.273047,23.272887 0 0 0 7.72737,1.54549 23.273047,23.272887 0 0 0 0.68183,0.13635 23.273047,23.272887 0 0 0 0.68183,-0.13635 23.273047,23.272887 0 0 0 7.72738,-1.54549 23.273047,23.272887 0 0 0 1.27275,-0.59089 23.273047,23.272887 0 0 0 6.77281,-4.5455 23.273047,23.272887 0 0 0 6.81828,-16.45466 V 93.09155 c 0,-38.284049 -31.53484,-69.818663 -69.81914,-69.818663 z M 69.815625,102.72798 122.81636,155.72834 c -5.52274,10.90253 -7.97353,22.63387 -7.31829,33.77297 1.06309,18.07209 9.29229,34.0651 21.18211,45.95487 11.88982,11.88972 27.88295,20.11887 45.95518,21.18196 11.13917,0.65524 22.87058,-1.79555 33.77319,-7.31823 l 41.59149,41.59118 -151.27482,151.27377 H 93.088672 c -13.128982,0 -23.273047,-10.144 -23.273047,-23.27289 z M 290.90958,323.8204 409.27485,442.18486 H 172.54431 Z" />
</svg>
